<svg enable-background="new 0 0 30 30" viewBox="0 0 30 30" xmlns="http://www.w3.org/2000/svg"><path d="m456.389 198.592s-1.19-1.19-4.212 0c0 0-5.861-5.448-11.538 1.282 0 0-8.012-.183-7.6 7.417 0 0-9.478 5.54.504 10.027 0 0 4.395 6.685 10.256 1.557 0 0 7.509 5.586 10.256-.824 0 0 6.227 7.326 9.981.275 0 0 6.685 6.501 11.629-.641 0 0 12.091 4.53 11.355-9.731 0 0-2.198-4.005-5.036-3.73 0 0-1.74-9.615-8.791-7.142 0 0-8.516-4.212-12.362 1.19-.001 0-3.449-.166-4.442.32z" fill="#2cc0fe"/><path d="m462.395 200.646s4.891-6.325 9.298 0c0 0 6.838-2.806 8.459 4.196.101.435 0 1.786 0 1.786s3.022-.069 4.739 2.335c0 0 1.648 8.104-8.104 7.211 0 0 .036-.57-2.974 2.383l1.852-.873s7.917 3.022 11.387-4.327c0 0 1.959-6.387-4.359-9.134 0 0-2.083-9.546-10.382-7.005 0 0-6.444-4.876-11.046.893 0 0-2.678 1.292.824 2.535" fill="#b5e7fe" opacity=".33"/><path d="m454.02 201.805s-5.002-7.52-9.409-.939c0 0-6.726-1.981-8.348 5.305-.101.453 0 1.858 0 1.858s-3.421-.391-4.229 2.533c-.807 2.918-.129 6.035 9.658 6.478.88.04 5.185.973.911 3.402 0 0-.538-.348-.739-.414-3.054-1.017-7.005-.927-11.69-5.391 0 0-.932-5.626 3.62-7.978 0 0-.137-7.337 10.31-8.421 0 0 .61-4.583 13.693.98 0 0 .031 1.293-3.471 2.586" fill="#b5e7fe" opacity=".33"/><ellipse cx="468.287" cy="202.789" fill="#b5e7fe" opacity=".33" rx="11.538" ry="6.288"/><path d="m453.524 203.267c-2.015 1.899-4.165 5.453-9.304 5.453s-9.304-2.441-9.304-5.453c0-1.815 2.792-2.729 5.723-4.033 1.934-.86 3.635-2.503 5.677-2.503 5.139-.001 9.763 4.128 7.208 6.536z" fill="#b5e7fe" opacity=".33"/><path d="m486.513 206.083c-.927-1.055-1.867-1.767-2.96-2.242-.2-.086-.401-.162-.607-.229-.564-2.941-1.856-5.064-3.85-6.311-1.912-1.199-3.968-1.531-6.076-.942-.725-.672-1.567-1.218-2.462-1.595-2.402-1.011-5.142-.754-7.522.696-.266.163-.522.34-.723.502-.76.533-1.406 1.203-1.893 1.959-.547-.068-1.1-.083-1.685-.047-.356.022-.711.091-1.069.183-1.679-.891-3.461-1.122-5.28-.618-.694-.638-1.496-1.158-2.346-1.515-2.303-.969-4.936-.725-7.224.669-.255.155-.499.325-.693.48-.724.508-1.339 1.145-1.805 1.864-.52-.064-1.039-.077-1.594-.043-1.002.061-1.988.403-3.103 1.074-1.453.876-2.538 2.413-3.138 4.448-.205.696-.296 1.459-.27 2.242-1.261.403-2.368 1.195-3.112 2.244-1.852 2.614-1.579 6.073.635 8.046 1.068.952 2.462 1.451 3.98 1.372.954 1.484 2.315 2.565 3.803 3.004 1.287.378 2.42.45 3.469.221 1.19-.261 2.226-.786 3.152-1.599 1.374 1.15 3.248 1.805 5.119 1.805.403 0 .806-.03 1.204-.093 1.572-.247 3.051-.961 4.279-2.065.812.786 1.741 1.383 2.74 1.676 1.34.395 2.522.471 3.61.231 1.251-.273 2.339-.827 3.307-1.687 1.434 1.212 3.397 1.902 5.359 1.902.421 0 .839-.031 1.253-.097 1.919-.3 3.696-1.269 5.069-2.754 2.938 1.219 6.466.786 8.812-1.141 1.803-1.479 2.994-3.512 3.271-5.579.309-2.306-.292-4.514-1.65-6.061zm-36.323 13.839c-1.926.297-4-.348-5.421-1.802-.171-.181-.476-.215-.724-.206-.249.005-.548.187-.711.376-.798.818-1.663 1.306-2.721 1.539-.752.163-1.602.1-2.597-.191-1.208-.356-2.323-1.327-3.057-2.666-.176-.321-.525-.509-.895-.447-1.183.17-2.334-.153-3.157-.889-1.76-1.569-1.504-4.116-.371-5.716.631-.89 1.642-1.518 2.774-1.727.46-.085.774-.516.713-.98-.106-.811-.056-1.605.149-2.3.329-1.119 1.007-2.625 2.359-3.438.863-.52 1.595-.782 2.303-.825.621-.035 1.189-.003 1.775.113.39.078.775-.114.953-.464.355-.695.898-1.313 1.611-1.815.179-.141.365-.27.559-.388 1.801-1.097 3.853-1.298 5.628-.55.795.335 1.539.852 2.15 1.497.239.252.7.305 1.024.188.956-.34 1.914-.369 2.865-.152-1.453.923-2.548 2.484-3.157 4.548-.216.734-.31 1.54-.28 2.364-1.324.416-2.487 1.245-3.265 2.344-1.926 2.717-1.643 6.314.659 8.366 1.116.995 2.61 1.491 4.158 1.424.03.048.069.086.1.133-.009.008-.021.01-.03.018-.98.881-2.153 1.451-3.394 1.646zm36.23-8.011c-.219 1.631-1.183 3.255-2.644 4.454-1.987 1.628-5.084 1.896-7.527.642-.365-.189-.826-.096-1.088.233-1.15 1.437-2.721 2.375-4.421 2.642-2.045.313-4.217-.367-5.713-1.899-.157-.167-.429-.204-.665-.204-.021 0-.043 0-.062.001-.251.006-.552.191-.715.381-.843.864-1.756 1.379-2.869 1.623-.792.174-1.689.108-2.737-.201-1.275-.374-2.451-1.398-3.225-2.809-.175-.321-.524-.499-.895-.447-1.257.175-2.468-.164-3.336-.938-1.86-1.659-1.591-4.349-.394-6.038.665-.939 1.733-1.604 2.928-1.823.46-.085.775-.516.713-.981-.114-.853-.059-1.691.157-2.422.347-1.178 1.06-2.763 2.487-3.624.906-.546 1.677-.822 2.428-.868.654-.044 1.251-.003 1.867.118.401.077.775-.114.953-.463.376-.734.949-1.386 1.7-1.914.187-.148.382-.284.588-.409 1.897-1.155 4.056-1.367 5.926-.578.841.354 1.625.898 2.262 1.575.238.251.702.3 1.03.188 1.661-.588 3.385-.367 4.996.643 1.663 1.043 2.721 2.946 3.142 5.654.056.354.32.64.67.721.298.07.592.164.878.288.856.372 1.577.924 2.337 1.79 1.023 1.162 1.472 2.863 1.229 4.665z"/><path d="m111.953 412.711 1.184-.686.95-.55h29.208l12.919.618s5.842.73.786 4.325l-2.696 10.672h-38.644l-2.778-9.8c-.001 0-1.727-4.396-.929-4.579z" fill="#a3875e"/><path d="m113.375 416.579 43.631-.51 1.684-2.3-.052-1.565-45.81-.056c.001 0-3.557-1.606.547 4.431z" fill="#826136"/><path d="m114.323 408.704 1.573 2.753 1.442-.328-1.9-2.982z" fill="#91de14"/><path d="m153.06 410.015 5.112-5.243-2.556 6.357h-3.277z" fill="#91de14"/><path d="m151.355 411.475s2.097-12.078 5.047-13.127c2.949-1.049-.328 0-.328 0s-7.8 2.163-6.948 12.781z" fill="#3bb417"/><path d="m147.882 410.802s-4.916-9.111-9.242-10.552l6.751 10.88z" fill="#3bb417"/><path d="m144.211 410.474-4.063-2.95 2.031 4.43z" fill="#91de14"/><path d="m125.466 410.802c.197 0 5.112-5.637 5.112-5.637l-1.507 5.964z" fill="#91de14"/><path d="m129.661 398.938s-4.127 6.857-5.243 12.191h-2.556c-.001 0 1.179-12.387 7.799-12.191z" fill="#3bb417"/><path d="m121.009 410.146s-6.355-9.93-8.848-9.897l6.096 11.077h2.753v-1.18z" fill="#3bb417"/><path d="m137.264 395.989s-1.966-8.455 9.111-9.7c0 0 7.005-.004 7.406-.786 0-.001-5.244 16.778-16.517 10.486z" fill="#59d331"/><path d="m133.724 392.122c.118-.171 1.901-10.487-14.288-11.929 0 0-.262 7.577 4.981 12.277 0-.001 5.375 5.354 9.307-.348z" fill="#59d331"/><path d="m153.781 385.502s-16.124 11.077-16.976 11.077c0 0-.983-8.306 7.406-9.921z" fill="#539933"/><path d="m132.938 393.301-14.42-13.109c0 .001 3.605 17.894 14.42 13.109z" fill="#539933"/><path d="m139.754 382.028s1.144 3.867 5.521.59c0 0 2.705 1.704 3.95-2.032 0 0 4.064-.852 2.065-4.391 0 0 2.884-2.36-.721-4.85 0 0 .262-3.703-3.375-3.834 0 0-3.539-2.72-4.883-.59 0 0-4.129-.426-4.26 2.36 0 0-3.9.983-2.622 4.359 0 0-1.868 3.179.983 5.047 0-.002 0 4.226 3.342 3.341z" fill="#f39ac0"/><g fill="#f283b8"><ellipse cx="145.284" cy="371.452" rx="2.571" ry=".256" transform="matrix(.2449 -.9695 .9695 .2449 -250.4367 421.3446)"/><ellipse cx="146.999" cy="375.468" rx=".256" ry="2.571" transform="matrix(.3239 -.9461 .9461 .3239 -255.8399 392.9481)"/><ellipse cx="144.217" cy="377.976" rx=".256" ry="2.571" transform="matrix(.9987 -.0507 .0507 .9987 -18.9904 7.8034)"/><ellipse cx="141.352" cy="372.731" rx=".256" ry="2.571" transform="matrix(.7071 -.7071 .7071 .7071 -222.1596 209.1216)"/><ellipse cx="141.09" cy="376.63" rx="2.571" ry=".256" transform="matrix(.7071 -.7071 .7071 .7071 -224.9936 210.0779)"/></g><circle cx="144.038" cy="374.454" fill="#fff" opacity=".16" r="3.522"/><path d="m160.543 403.08c-.199-.279-.559-.379-.881-.252-.207.087-4.803 2.111-7.278 7.208 1.061-8.497 6.007-12.265 6.058-12.303.285-.211.379-.594.225-.911s-.506-.485-.854-.388c-8.396 2.296-9.579 11.431-9.701 12.699-1.595-2.749-3.085-4.898-4.431-6.341-1.559-1.675-4.156-3.556-6.772-3.814-.33-.031-.63.154-.752.455-.123.301-.032.647.222.85.04.033 3.29 2.699 6.11 7.321-.773-.617-1.597-1.189-2.515-1.674-.299-.156-.668-.09-.893.164-.223.254-.244.629-.049.907.012.018 1.128 1.619 2.227 3.767h-4.035c-.149-.25-3.011-5.208-2.371-12.768.729-.172 1.463-.403 2.196-.681 1.603.86 3.167 1.169 4.589 1.169 3.609 0 6.296-1.992 6.341-2.028 4.486-3.666 6.407-10.656 6.487-10.952s-.033-.61-.283-.789c-.25-.177-.584-.184-.838-.009-.571.387-2.999.63-4.949.824-1.934.194-3.935.393-5.266.766-3.119.876-5.225 2.401-6.256 4.533-.968 2.001-.728 4-.451 5.147-.461.173-.92.321-1.377.448.446-3.088 1.477-6.538 3.501-10.245.387-.71.977-1.497 1.732-2.332.517.557 1.212.945 2.006 1.031.119.012.236.018.352.018.963 0 1.864-.43 2.472-1.158.981.558 2.206.577 3.21-.002.952-.546 1.542-1.52 1.614-2.581 1.12-.125 2.122-.826 2.597-1.889.449-1.002.352-2.136-.211-3.036.832-.759 1.227-1.915.989-3.055-.225-1.074-.971-1.936-1.956-2.332.227-1.104-.131-2.271-.993-3.053-.813-.737-1.915-.997-2.956-.737-.023-.058-.059-.14-.07-.16-.199-.38-.467-.713-.797-.987-.059-.05-.123-.093-.283-.202-.076-.054-.152-.107-.244-.159-.084-.045-.172-.082-.36-.159-.027-.012-.19-.078-.219-.087-.412-.129-.838-.174-1.268-.137-.078.008-.154.023-.344.059-.094.016-.186.033-.268.058-.096.027-.186.063-.373.141-.029.011-.197.083-.223.096-.184.097-.358.211-.545.358-.156.127-.299.268-.434.427-.979-.554-2.2-.57-3.203.006-.952.547-1.542 1.522-1.614 2.582-1.119.125-2.12.827-2.596 1.889-.45 1.002-.352 2.135.212 3.035-.833.759-1.229 1.915-.99 3.055.225 1.074.97 1.936 1.956 2.333-.226 1.102.132 2.27.995 3.052.636.577 1.456.85 2.276.822-.739.842-1.347 1.651-1.754 2.399-1.478 2.708-2.458 5.28-3.085 7.684-.031-.032-.061-.064-.092-.096 1.234-5.923-3.468-9.906-3.515-9.941-4.622-3.492-11.869-3.704-12.176-3.712-.313-.014-.586.176-.699.462s-.038.611.189.817c.512.463 1.322 2.763 1.972 4.612.646 1.834 1.313 3.731 1.99 4.934 1.589 2.826 3.569 4.51 5.885 5.008.497.107.978.152 1.44.152 1.818 0 3.297-.7 4.035-1.127.201.206.399.412.592.617-.585 2.964-.643 5.627-.416 7.914-.14-.028-.287-.032-.426.024-.206.087-4.797 2.109-7.274 7.201 1.062-8.492 6.004-12.257 6.057-12.296.284-.211.379-.594.224-.911-.155-.319-.514-.485-.853-.388-8.404 2.299-9.581 11.45-9.701 12.702-1.596-2.751-3.086-4.901-4.432-6.344-1.561-1.675-4.16-3.558-6.774-3.814-.336-.031-.63.154-.752.455-.123.301-.032.647.222.85.04.033 3.288 2.698 6.107 7.318-.772-.615-1.594-1.187-2.51-1.671-.298-.156-.67-.09-.894.164s-.245.629-.05.907c.013.018 1.126 1.615 2.227 3.767h-.07c-2.216 0-4.019 1.485-4.019 3.31 0 1.111.695 2.111 1.799 2.723l2.387 10.631c.075.334.373.571.716.571h39.126c.344 0 .641-.238.717-.571l2.366-10.535c1.211-.596 1.972-1.643 1.972-2.819 0-1.48-1.192-2.722-2.822-3.144.832-2.711 2.084-5.055 3.773-6.938.229-.255.249-.634.05-.914zm-22.342-11.621c.844-1.73 2.634-2.99 5.325-3.745 1.206-.338 3.142-.532 5.016-.719 1.729-.172 3.079-.315 4.068-.519-.764 2.158-2.558 6.393-5.538 8.828-.042.032-3.852 2.789-8.193 1.228.947-.453 1.872-.963 2.766-1.503.363-.091 2.658-.629 4.52-.085.395.111.799-.112.909-.502.113-.389-.111-.796-.5-.909-.732-.21-1.497-.282-2.22-.286.282-.201.556-.399.823-.597.677-.154 2.289-.446 3.42-.029.385.139.803-.056.942-.436.141-.38-.055-.802-.434-.942-.55-.202-1.159-.278-1.752-.292 1.44-1.184 2.371-2.067 2.479-2.172.293-.281.303-.746.023-1.037-.285-.293-.748-.301-1.038-.022-.027.025-.951.901-2.406 2.093.153-.426.278-.838.335-1.178.066-.4-.205-.778-.604-.845-.406-.073-.776.206-.846.603-.143.867-.988 2.668-1.302 3.294-.276.201-.562.404-.853.607.29-.698.548-1.411.636-1.937.066-.399-.205-.777-.606-.843-.416-.068-.778.206-.844.605-.146.895-1.053 2.805-1.498 3.68-.98.592-1.999 1.141-3.031 1.611-.195-.958-.312-2.485.403-3.951zm9.387-8.992c-.703.401-1.581.275-2.147-.303-.17-.172-.416-.248-.653-.209-.24.043-.44.201-.541.422-.317.709-1.026 1.124-1.807 1.046-.735-.079-1.319-.622-1.501-1.333l2.498-5.148c.295.079.609.107.932.066.2-.026.369-.116.548-.187l3.522 3.899c.085.705-.234 1.393-.851 1.747zm4.281-8.986c.166.788-.225 1.588-.95 1.949-.219.109-.369.316-.401.557s.055.481.234.644c.576.521.752 1.341.438 2.04-.299.667-.998 1.05-1.701 1.017l-3.425-3.79c.292-.459.459-1.002.383-1.584-.012-.091-.064-.163-.085-.25l4.116-1.932c.692.139 1.245.654 1.391 1.349zm-5.669-5.39c.02.251.166.474.389.591.223.119.492.112.707-.012.674-.387 1.507-.302 2.075.213.544.493.698 1.264.439 1.941l-4.208 1.975c-.334-.282-.741-.447-1.185-.514l-1.454-4.832c.008-.013.123-.182.127-.189.074-.088.156-.17.258-.252.088-.072.184-.134.287-.187l.223-.089.203-.059c.002-.001.231-.045.236-.046.234-.019.467.003.746.098.012.005.162.069.174.073l.186.102.193.133c.18.15.332.338.457.589.002.009.104.26.109.27m-10.262 3.489c.329-.732 1.11-1.146 1.916-1.017.238.04.481-.041.649-.216.17-.174.24-.421.19-.659-.16-.759.18-1.525.844-1.906.659-.378 1.473-.271 2.037.222l1.414 4.701c-.591.311-1.033.841-1.208 1.482l-5.471-.948c-.08-.014-.159-.006-.235.006-.316-.494-.383-1.113-.136-1.665zm1.82 9.788c-.597-.54-.751-1.418-.377-2.136.113-.216.111-.472-.002-.686-.115-.214-.329-.357-.569-.384-.772-.083-1.395-.642-1.552-1.392-.166-.788.226-1.588.951-1.949.043-.021.069-.062.107-.091l5.593.969c.089.22.201.416.346.596l-2.598 5.353c-.638.284-1.378.193-1.899-.28zm-9.687 12.64c-1.887-.406-3.54-1.85-4.914-4.291-.614-1.093-1.261-2.928-1.884-4.703-.578-1.639-1.036-2.917-1.469-3.83 2.281.233 6.824.978 9.89 3.294.039.032 3.534 3.009 3.138 7.513-.592-.575-1.194-1.147-1.799-1.706-.26-.544-1.292-2.844-1.145-4.932.029-.405-.277-.755-.681-.783-.41-.028-.755.277-.783.681-.072 1.028.095 2.061.328 2.98-.309-.271-.611-.536-.909-.793-.301-.629-1.099-2.46-.895-3.897.056-.401-.223-.772-.625-.83s-.772.224-.83.625c-.104.733-.009 1.509.153 2.235-1.643-1.371-2.771-2.26-2.8-2.282-.317-.249-.78-.196-1.03.125-.25.319-.195.78.125 1.03.028.022 1.17.922 2.824 2.303-.604-.09-1.198-.152-1.655-.134-.406.019-.718.364-.698.768.018.406.397.731.768.698.989-.033 3.12.443 3.908.646.253.22.512.448.773.677-.857-.159-1.731-.281-2.342-.257-.406.019-.718.364-.698.768.018.406.397.708.768.698 1.082-.037 3.484.53 4.502.801.698.645 1.393 1.307 2.067 1.97-.853.433-2.378.999-4.087.626zm21.526 15.62c.018-.322.473-6.755 5.368-10.09-1.678 2.269-3.612 5.999-4.096 11.423h-1.141c-.158-.759-.157-1.133-.131-1.333zm-6.952-5.642c1.412 1.515 3.011 3.887 4.745 6.976h-1.572c-.008-.027-.006-.055-.017-.082-1.774-4.117-4.205-7.236-6.01-9.19 1.111.649 2.11 1.499 2.854 2.296zm-.576 5.3c.587.511 1.103 1.08 1.583 1.675h-.731c-.284-.586-.573-1.168-.852-1.675zm-8.473-4.813c.495 3.122 1.44 5.371 2 6.489h-5.496c.793-2.511 1.959-4.694 3.496-6.489zm-3.182 1.979c-.769 1.368-1.373 2.886-1.851 4.51h-1.587c.938-1.967 2.229-3.465 3.438-4.51zm-7.527 3.176c.004-.08.453-6.661 5.346-10.059-1.675 2.271-3.592 5.992-4.076 11.392h-1.138c-.159-.757-.159-1.131-.132-1.333zm-6.952-5.642c1.411 1.514 3.009 3.888 4.742 6.976h-1.571c-.008-.027-.006-.055-.017-.082-1.774-4.117-4.204-7.234-6.007-9.188 1.109.647 2.108 1.497 2.853 2.294zm-.576 5.3c.588.511 1.103 1.08 1.583 1.675h-.731c-.284-.586-.573-1.168-.852-1.675zm42.754 4.986c0 .63-.474 1.216-1.228 1.557-.3.039-.555.251-.625.559l-2.323 10.344h-37.951l-1.965-8.75-.358-1.594c-.007-.029-.025-.051-.035-.078-.013-.043-.033-.081-.054-.121-.019-.033-.037-.066-.061-.095-.045-.06-.099-.109-.162-.153-.006-.004-.011-.008-.017-.012-.036-.024-.065-.056-.107-.074-.779-.338-1.263-.944-1.263-1.581 0-1 1.167-1.843 2.55-1.843h41.048c1.384-.003 2.551.841 2.551 1.841zm-2.838-3.31h-1.588c.938-1.967 2.23-3.465 3.439-4.51-.768 1.367-1.372 2.886-1.851 4.51z"/><path d="m111.953 412.711 1.184-.686.95-.55h29.208l12.919.618s5.842.73.786 4.325l-2.696 10.672h-38.644l-2.778-9.8c-.001 0-1.727-4.396-.929-4.579z" fill="#a3875e"/><path d="m113.375 416.579 43.631-.51 1.684-2.3-.052-1.565-45.81-.056c.001 0-3.557-1.606.547 4.431z" fill="#826136"/><path d="m114.323 408.704 1.573 2.753 1.442-.328-1.9-2.982z" fill="#91de14"/><path d="m153.06 410.015 5.112-5.243-2.556 6.357h-3.277z" fill="#91de14"/><path d="m151.355 411.475s2.097-12.078 5.047-13.127c2.949-1.049-.328 0-.328 0s-7.8 2.163-6.948 12.781z" fill="#3bb417"/><path d="m147.882 410.802s-4.916-9.111-9.242-10.552l6.751 10.88z" fill="#3bb417"/><path d="m144.211 410.474-4.063-2.95 2.031 4.43z" fill="#91de14"/><path d="m125.466 410.802c.197 0 5.112-5.637 5.112-5.637l-1.507 5.964z" fill="#91de14"/><path d="m129.661 398.938s-4.127 6.857-5.243 12.191h-2.556c-.001 0 1.179-12.387 7.799-12.191z" fill="#3bb417"/><path d="m121.009 410.146s-6.355-9.93-8.848-9.897l6.096 11.077h2.753v-1.18z" fill="#3bb417"/><path d="m137.264 395.989s-1.966-8.455 9.111-9.7c0 0 7.005-.004 7.406-.786 0-.001-5.244 16.778-16.517 10.486z" fill="#59d331"/><path d="m133.724 392.122c.118-.171 1.901-10.487-14.288-11.929 0 0-.262 7.577 4.981 12.277 0-.001 5.375 5.354 9.307-.348z" fill="#59d331"/><path d="m153.781 385.502s-16.124 11.077-16.976 11.077c0 0-.983-8.306 7.406-9.921z" fill="#539933"/><path d="m132.938 393.301-14.42-13.109c0 .001 3.605 17.894 14.42 13.109z" fill="#539933"/><path d="m139.754 382.028s1.144 3.867 5.521.59c0 0 2.705 1.704 3.95-2.032 0 0 4.064-.852 2.065-4.391 0 0 2.884-2.36-.721-4.85 0 0 .262-3.703-3.375-3.834 0 0-3.539-2.72-4.883-.59 0 0-4.129-.426-4.26 2.36 0 0-3.9.983-2.622 4.359 0 0-1.868 3.179.983 5.047 0-.002 0 4.226 3.342 3.341z" fill="#f39ac0"/><ellipse cx="145.284" cy="371.452" fill="#f283b8" rx="2.571" ry=".256" transform="matrix(.2449 -.9695 .9695 .2449 -250.4367 421.3446)"/><ellipse cx="146.999" cy="375.468" fill="#f283b8" rx=".256" ry="2.571" transform="matrix(.3239 -.9461 .9461 .3239 -255.8399 392.9481)"/><ellipse cx="144.217" cy="377.976" fill="#f283b8" rx=".256" ry="2.571" transform="matrix(.9987 -.0507 .0507 .9987 -18.9904 7.8034)"/><ellipse cx="141.352" cy="372.731" fill="#f283b8" rx=".256" ry="2.571" transform="matrix(.7071 -.7071 .7071 .7071 -222.1596 209.1216)"/><ellipse cx="141.09" cy="376.63" fill="#f283b8" rx="2.571" ry=".256" transform="matrix(.7071 -.7071 .7071 .7071 -224.9936 210.0779)"/><circle cx="144.038" cy="374.454" fill="#fff" opacity=".16" r="3.522"/><path d="m160.543 403.08c-.199-.279-.559-.379-.881-.252-.207.087-4.803 2.111-7.278 7.208 1.061-8.497 6.007-12.265 6.058-12.303.285-.211.379-.594.225-.911s-.506-.485-.854-.388c-8.396 2.296-9.579 11.431-9.701 12.699-1.595-2.749-3.085-4.898-4.431-6.341-1.559-1.675-4.156-3.556-6.772-3.814-.33-.031-.63.154-.752.455-.123.301-.032.647.222.85.04.033 3.29 2.699 6.11 7.321-.773-.617-1.597-1.189-2.515-1.674-.299-.156-.668-.09-.893.164-.223.254-.244.629-.049.907.012.018 1.128 1.619 2.227 3.767h-4.035c-.149-.25-3.011-5.208-2.371-12.768.729-.172 1.463-.403 2.196-.681 1.603.86 3.167 1.169 4.589 1.169 3.609 0 6.296-1.992 6.341-2.028 4.486-3.666 6.407-10.656 6.487-10.952s-.033-.61-.283-.789c-.25-.177-.584-.184-.838-.009-.571.387-2.999.63-4.949.824-1.934.194-3.935.393-5.266.766-3.119.876-5.225 2.401-6.256 4.533-.968 2.001-.728 4-.451 5.147-.461.173-.92.321-1.377.448.446-3.088 1.477-6.538 3.501-10.245.387-.71.977-1.497 1.732-2.332.517.557 1.212.945 2.006 1.031.119.012.236.018.352.018.963 0 1.864-.43 2.472-1.158.981.558 2.206.577 3.21-.002.952-.546 1.542-1.52 1.614-2.581 1.12-.125 2.122-.826 2.597-1.889.449-1.002.352-2.136-.211-3.036.832-.759 1.227-1.915.989-3.055-.225-1.074-.971-1.936-1.956-2.332.227-1.104-.131-2.271-.993-3.053-.813-.737-1.915-.997-2.956-.737-.023-.058-.059-.14-.07-.16-.199-.38-.467-.713-.797-.987-.059-.05-.123-.093-.283-.202-.076-.054-.152-.107-.244-.159-.084-.045-.172-.082-.36-.159-.027-.012-.19-.078-.219-.087-.412-.129-.838-.174-1.268-.137-.078.008-.154.023-.344.059-.094.016-.186.033-.268.058-.096.027-.186.063-.373.141-.029.011-.197.083-.223.096-.184.097-.358.211-.545.358-.156.127-.299.268-.434.427-.979-.554-2.2-.57-3.203.006-.952.547-1.542 1.522-1.614 2.582-1.119.125-2.12.827-2.596 1.889-.45 1.002-.352 2.135.212 3.035-.833.759-1.229 1.915-.99 3.055.225 1.074.97 1.936 1.956 2.333-.226 1.102.132 2.27.995 3.052.636.577 1.456.85 2.276.822-.739.842-1.347 1.651-1.754 2.399-1.478 2.708-2.458 5.28-3.085 7.684-.031-.032-.061-.064-.092-.096 1.234-5.923-3.468-9.906-3.515-9.941-4.622-3.492-11.869-3.704-12.176-3.712-.313-.014-.586.176-.699.462s-.038.611.189.817c.512.463 1.322 2.763 1.972 4.612.646 1.834 1.313 3.731 1.99 4.934 1.589 2.826 3.569 4.51 5.885 5.008.497.107.978.152 1.44.152 1.818 0 3.297-.7 4.035-1.127.201.206.399.412.592.617-.585 2.964-.643 5.627-.416 7.914-.14-.028-.287-.032-.426.024-.206.087-4.797 2.109-7.274 7.201 1.062-8.492 6.004-12.257 6.057-12.296.284-.211.379-.594.224-.911-.155-.319-.514-.485-.853-.388-8.404 2.299-9.581 11.45-9.701 12.702-1.596-2.751-3.086-4.901-4.432-6.344-1.561-1.675-4.16-3.558-6.774-3.814-.336-.031-.63.154-.752.455-.123.301-.032.647.222.85.04.033 3.288 2.698 6.107 7.318-.772-.615-1.594-1.187-2.51-1.671-.298-.156-.67-.09-.894.164s-.245.629-.05.907c.013.018 1.126 1.615 2.227 3.767h-.07c-2.216 0-4.019 1.485-4.019 3.31 0 1.111.695 2.111 1.799 2.723l2.387 10.631c.075.334.373.571.716.571h39.126c.344 0 .641-.238.717-.571l2.366-10.535c1.211-.596 1.972-1.643 1.972-2.819 0-1.48-1.192-2.722-2.822-3.144.832-2.711 2.084-5.055 3.773-6.938.229-.255.249-.634.05-.914zm-22.342-11.621c.844-1.73 2.634-2.99 5.325-3.745 1.206-.338 3.142-.532 5.016-.719 1.729-.172 3.079-.315 4.068-.519-.764 2.158-2.558 6.393-5.538 8.828-.042.032-3.852 2.789-8.193 1.228.947-.453 1.872-.963 2.766-1.503.363-.091 2.658-.629 4.52-.085.395.111.799-.112.909-.502.113-.389-.111-.796-.5-.909-.732-.21-1.497-.282-2.22-.286.282-.201.556-.399.823-.597.677-.154 2.289-.446 3.42-.029.385.139.803-.056.942-.436.141-.38-.055-.802-.434-.942-.55-.202-1.159-.278-1.752-.292 1.44-1.184 2.371-2.067 2.479-2.172.293-.281.303-.746.023-1.037-.285-.293-.748-.301-1.038-.022-.027.025-.951.901-2.406 2.093.153-.426.278-.838.335-1.178.066-.4-.205-.778-.604-.845-.406-.073-.776.206-.846.603-.143.867-.988 2.668-1.302 3.294-.276.201-.562.404-.853.607.29-.698.548-1.411.636-1.937.066-.399-.205-.777-.606-.843-.416-.068-.778.206-.844.605-.146.895-1.053 2.805-1.498 3.68-.98.592-1.999 1.141-3.031 1.611-.195-.958-.312-2.485.403-3.951zm9.387-8.992c-.703.401-1.581.275-2.147-.303-.17-.172-.416-.248-.653-.209-.24.043-.44.201-.541.422-.317.709-1.026 1.124-1.807 1.046-.735-.079-1.319-.622-1.501-1.333l2.498-5.148c.295.079.609.107.932.066.2-.026.369-.116.548-.187l3.522 3.899c.085.705-.234 1.393-.851 1.747zm4.281-8.986c.166.788-.225 1.588-.95 1.949-.219.109-.369.316-.401.557s.055.481.234.644c.576.521.752 1.341.438 2.04-.299.667-.998 1.05-1.701 1.017l-3.425-3.79c.292-.459.459-1.002.383-1.584-.012-.091-.064-.163-.085-.25l4.116-1.932c.692.139 1.245.654 1.391 1.349zm-5.669-5.39c.02.251.166.474.389.591.223.119.492.112.707-.012.674-.387 1.507-.302 2.075.213.544.493.698 1.264.439 1.941l-4.208 1.975c-.334-.282-.741-.447-1.185-.514l-1.454-4.832c.008-.013.123-.182.127-.189.074-.088.156-.17.258-.252.088-.072.184-.134.287-.187l.223-.089.203-.059c.002-.001.231-.045.236-.046.234-.019.467.003.746.098.012.005.162.069.174.073l.186.102.193.133c.18.15.332.338.457.589.002.009.104.26.109.27m-10.262 3.489c.329-.732 1.11-1.146 1.916-1.017.238.04.481-.041.649-.216.17-.174.24-.421.19-.659-.16-.759.18-1.525.844-1.906.659-.378 1.473-.271 2.037.222l1.414 4.701c-.591.311-1.033.841-1.208 1.482l-5.471-.948c-.08-.014-.159-.006-.235.006-.316-.494-.383-1.113-.136-1.665zm1.82 9.788c-.597-.54-.751-1.418-.377-2.136.113-.216.111-.472-.002-.686-.115-.214-.329-.357-.569-.384-.772-.083-1.395-.642-1.552-1.392-.166-.788.226-1.588.951-1.949.043-.021.069-.062.107-.091l5.593.969c.089.22.201.416.346.596l-2.598 5.353c-.638.284-1.378.193-1.899-.28zm-9.687 12.64c-1.887-.406-3.54-1.85-4.914-4.291-.614-1.093-1.261-2.928-1.884-4.703-.578-1.639-1.036-2.917-1.469-3.83 2.281.233 6.824.978 9.89 3.294.039.032 3.534 3.009 3.138 7.513-.592-.575-1.194-1.147-1.799-1.706-.26-.544-1.292-2.844-1.145-4.932.029-.405-.277-.755-.681-.783-.41-.028-.755.277-.783.681-.072 1.028.095 2.061.328 2.98-.309-.271-.611-.536-.909-.793-.301-.629-1.099-2.46-.895-3.897.056-.401-.223-.772-.625-.83s-.772.224-.83.625c-.104.733-.009 1.509.153 2.235-1.643-1.371-2.771-2.26-2.8-2.282-.317-.249-.78-.196-1.03.125-.25.319-.195.78.125 1.03.028.022 1.17.922 2.824 2.303-.604-.09-1.198-.152-1.655-.134-.406.019-.718.364-.698.768.018.406.397.731.768.698.989-.033 3.12.443 3.908.646.253.22.512.448.773.677-.857-.159-1.731-.281-2.342-.257-.406.019-.718.364-.698.768.018.406.397.708.768.698 1.082-.037 3.484.53 4.502.801.698.645 1.393 1.307 2.067 1.97-.853.433-2.378.999-4.087.626zm21.526 15.62c.018-.322.473-6.755 5.368-10.09-1.678 2.269-3.612 5.999-4.096 11.423h-1.141c-.158-.759-.157-1.133-.131-1.333zm-6.952-5.642c1.412 1.515 3.011 3.887 4.745 6.976h-1.572c-.008-.027-.006-.055-.017-.082-1.774-4.117-4.205-7.236-6.01-9.19 1.111.649 2.11 1.499 2.854 2.296zm-.576 5.3c.587.511 1.103 1.08 1.583 1.675h-.731c-.284-.586-.573-1.168-.852-1.675zm-8.473-4.813c.495 3.122 1.44 5.371 2 6.489h-5.496c.793-2.511 1.959-4.694 3.496-6.489zm-3.182 1.979c-.769 1.368-1.373 2.886-1.851 4.51h-1.587c.938-1.967 2.229-3.465 3.438-4.51zm-7.527 3.176c.004-.08.453-6.661 5.346-10.059-1.675 2.271-3.592 5.992-4.076 11.392h-1.138c-.159-.757-.159-1.131-.132-1.333zm-6.952-5.642c1.411 1.514 3.009 3.888 4.742 6.976h-1.571c-.008-.027-.006-.055-.017-.082-1.774-4.117-4.204-7.234-6.007-9.188 1.109.647 2.108 1.497 2.853 2.294zm-.576 5.3c.588.511 1.103 1.08 1.583 1.675h-.731c-.284-.586-.573-1.168-.852-1.675zm42.754 4.986c0 .63-.474 1.216-1.228 1.557-.3.039-.555.251-.625.559l-2.323 10.344h-37.951l-1.965-8.75-.358-1.594c-.007-.029-.025-.051-.035-.078-.013-.043-.033-.081-.054-.121-.019-.033-.037-.066-.061-.095-.045-.06-.099-.109-.162-.153-.006-.004-.011-.008-.017-.012-.036-.024-.065-.056-.107-.074-.779-.338-1.263-.944-1.263-1.581 0-1 1.167-1.843 2.55-1.843h41.048c1.384-.003 2.551.841 2.551 1.841zm-2.838-3.31h-1.588c.938-1.967 2.23-3.465 3.439-4.51-.768 1.367-1.372 2.886-1.851 4.51z"/><path d="m21.699 9.618h5.65v2.529h-5.65z" fill="#51f4ef" opacity=".55"/><path d="m22.122 13.579 5.142-.031v2.658l-5.79.246z" fill="#51f4ef" opacity=".52"/><path d="m.913 10.906 9.571.06s-2.18 2.111-2.289 4.566c0 0-.632 4.226 2.165 6.381l-10.007-.104.249-10.968z" fill="#404042"/><path d="m21.931 17.143.191-.762-.25.031-.229-2.808-2.735-3.066-2.962-1.036-4.102.539-1.206 1.18-.083-.096-.352.522-1.281 1.254.334.152-1.067 1.583.17 4.315 2.555 3.488 3.935 1.182 1.168-.254.011.068.296-.135 1.592-.347 1.061-.86.904-.412.331-.591.917-.743.403-1.608.462-.824zm-9.407 4.234-1.198-.708-1.248-1.218-.741-2.76.173-1.924.691-1.368.471-.5 1.73-1.47 2.753-.456 2.903.559 1.657 2.134.958 1.388.119 1.533-.11.553-.757 2.316-2.107 1.829-2.766 1.043z" fill="#4c4e4d"/><path d="m2.694 5.992h4.754v1.989h-4.754z" fill="#707070"/><path d="m8.599 7.98h13.114s-1.398-2.921-3.543-2.921-6.285-.033-6.285-.033-1.898.769-3.286 2.954z" fill="#707070"/><path d="m.55 22.151h9.934s4.143 3.004 9.302-.238h9.478s.746 3.47-5.127 3.284l-20.727-.28c-.001-.001-3.108.124-2.86-2.766z" fill="#404042"/><path d="m29.294 10.841-.412-1.28.082.004s-.953-2.151-7.251-1.303l-15.745.06c-5.387-.497-5.432 2.248-5.432 2.248l.066.27 9.882.125c1.74-1.417 5.676-1.317 5.676-1.317 2.478.248 4.255 2.29 4.757 2.902l1.085 3.903c.414 2.563-2.217 5.351-2.217 5.351h7.479.161 1.993zm-2.61 1.475-5.21.059.238-.19v-3.015l5.552.302v2.657z" fill="#404042"/><path d="m5.419 10.934s-3.346 4.318-.207 10.871h-4.676l.066-10.964z" fill="#6d6e72"/><path d="m28.942 23.558-28.268-.195s.528 2.144 9.416 1.678l15.258.066s2.247.138 3.594-1.549z" fill="#6d6e72"/><path d="m29.294 21.798-.124-12.139-1.298-.872.076-.091-.096-.311-13.577-.187-12.202.145-.539.476s-.414.696.104.32c.518-.375 10.213-.32 10.213-.32l15.666.372c.29 1.19.493 3.269-1.672 3.17-1.945-.089.181 5.053-1.854 9.55z" fill="#6d6e72"/><circle cx="15.06" cy="16.562" fill="#422567" r="5.422"/><path d="m20.687 16.376c0 2.88-2.64 5.607-4.382 5.607s-2.548-2.727-2.548-5.607 1.334-5.071 3.076-5.071 3.854 2.192 3.854 5.071z" fill="#fff" opacity=".17"/><path d="m27.533 18.327c-1.146 1.069-3.211 1.031-3.858.338s.139-2.027 1.285-3.096 2.514-1.352 3.16-.659c.647.693.559 2.347-.587 3.417z" fill="#fff" opacity=".07"/><path d="m21.045 16.838c.004-.09.006-.184.006-.276 0-3.304-2.688-5.992-5.991-5.992-3.304 0-5.991 2.688-5.991 5.992s2.687 5.991 5.991 5.991c3.21 0 5.838-2.511 5.985-5.715zm-11.231-.276c0-2.892 2.353-5.246 5.245-5.246s5.245 2.353 5.245 5.246c0 .081-.002.162-.006.243-.127 2.805-2.429 5.002-5.24 5.002-2.891 0-5.244-2.353-5.244-5.245z"/><path d="m13.774 5.702h-1.165c-1.353.049-1.949.807-1.972.836l-.425.541c-.127.162-.099.396.063.523.068.053.149.08.23.08.111 0 .22-.049.294-.143l.424-.54c.017-.021.429-.516 1.399-.552h1.152c.206 0 .373-.167.373-.373s-.167-.372-.373-.372z"/><path d="m23.618 10.024h-.426c-.496 0-.885.332-.885.755v.506c0 .206.167.373.373.373s.373-.167.373-.373l-.01-.469c.007-.009.056-.047.149-.047h.426c.206 0 .373-.167.373-.373s-.167-.372-.373-.372z"/><path d="m26.436 7.773h-4.428l-1.793-2.283c-.023-.03-.524-.652-1.638-.804-.047-.022-.099-.036-.155-.036h-.195-6.174-.182c-.055 0-.106.013-.153.035-1.112.149-1.616.775-1.637.802l-1.796 2.286h-.487v-1.581c0-.378-.307-.685-.686-.685h-4.138c-.378 0-.685.307-.685.685v1.821c0 .005.003.009.003.014-1.127.464-1.933 1.528-2.051 2.79-.02.046-.031.096-.031.148 0 .019.008.036.011.054-.001.037-.011.071-.011.109v10.866c0 1.851 1.506 3.356 3.356 3.356h22.871c1.851 0 3.356-1.505 3.356-3.356v-10.865c-.001-1.851-1.507-3.356-3.357-3.356zm-15.769-1.826c.017-.021.429-.516 1.399-.552h6.15c.981.037 1.392.531 1.409.551l1.434 1.826h-11.826zm-3.615 1.826h-.628c.137-.055.233-.188.233-.345v-.933c0-.123-.064-.227-.156-.295l.55-.008v1.581zm-2.965-1.537.701-.01c-.072.067-.118.162-.118.269v.933c0 .156.097.289.233.345h-.943c.137-.055.233-.188.233-.345v-.933c.001-.101-.04-.192-.106-.259zm1.199-.018.772-.011c-.087.068-.146.17-.146.289v.933c0 .156.097.289.233.345h-.963c.137-.055.233-.188.233-.345v-.934c.001-.111-.051-.209-.129-.277zm-2.312.034.575-.009c-.062.067-.101.155-.101.252v.933c0 .156.097.289.233.345h-.117c-.184 0-.361.026-.537.054zm19.422 10.583.005-.273c0-2.334-1.067-4.483-2.929-5.897-1.295-.984-2.842-1.504-4.472-1.504s-3.133.536-4.357 1.432h-9.632c.248-1.183 1.298-2.075 2.553-2.075h22.871c1.439 0 2.61 1.171 2.61 2.61v10.439h-8.591c1.149-1.249 1.875-2.896 1.942-4.732m-21.442-5.497h8.809c-1.336 1.34-2.163 3.187-2.163 5.224 0 1.932.75 3.687 1.966 5.006h-8.612zm18.067-.079c1.673 1.272 2.634 3.205 2.634 5.303l-.005.247c-.071 1.963-.979 3.689-2.372 4.855-.009.008-.018.014-.026.023-1.153.955-2.632 1.529-4.252 1.529-3.67 0-6.655-2.985-6.655-6.654 0-3.67 2.985-6.655 6.655-6.655 1.466 0 2.857.467 4.021 1.352m7.415 13.346h-22.872c-1.33 0-2.418-1.004-2.578-2.291h9.367c1.271 1.029 2.887 1.648 4.646 1.648 1.773 0 3.396-.616 4.669-1.648h9.345c-.159 1.287-1.248 2.291-2.577 2.291z"/><path d="m22.003 12.714h5.178c.37 0 .671-.301.671-.671v-2.274c0-.37-.301-.671-.671-.671h-5.178c-.37 0-.671.301-.671.671v2.274c0 .37.301.671.671.671zm.074-2.87h5.028v2.125h-5.028z"/><path d="m25.83 11.568c-.512.478-1.436.461-1.725.151s.062-.906.575-1.385 1.124-.605 1.413-.295.25 1.051-.263 1.529z" fill="#fff" opacity=".28"/></svg>