<?xml version="1.0" standalone="no"?>
<!DOCTYPE svg PUBLIC "-//W3C//DTD SVG 20010904//EN"
 "http://www.w3.org/TR/2001/REC-SVG-20010904/DTD/svg10.dtd">
<svg version="1.0" xmlns="http://www.w3.org/2000/svg"
 width="231.000000pt" height="231.000000pt" viewBox="0 0 231.000000 231.000000"
 preserveAspectRatio="xMidYMid meet">
<metadata>
Created by potrace 1.11, written by Peter Selinger 2001-2013
</metadata>
<g transform="translate(0.000000,231.000000) scale(0.100000,-0.100000)"
fill="#000000" stroke="none">
<path d="M1022 1876 c-92 -18 -221 -80 -289 -139 -166 -143 -241 -293 -248
-492 -5 -160 34 -297 121 -418 l37 -51 -52 -125 c-28 -68 -49 -126 -47 -129 5
-4 90 53 174 115 l42 32 36 -21 c35 -21 46 -19 50 7 6 40 120 165 151 165 5 0
10 7 10 15 0 8 -4 12 -8 10 -4 -3 -9 2 -13 10 -4 11 -21 15 -61 15 -56 0 -120
23 -110 40 3 4 0 10 -7 12 -7 3 -12 30 -14 72 -2 64 -3 68 -39 99 -28 25 -38
42 -41 71 -5 39 14 82 43 99 16 10 19 272 3 282 -15 10 -12 52 5 59 35 13 67
-31 39 -55 -20 -16 -20 -269 -1 -269 7 0 21 17 30 39 21 47 93 131 113 131 8
0 14 4 14 9 0 5 24 19 53 32 41 19 70 24 137 24 77 0 92 -3 152 -33 70 -34
136 -98 165 -159 8 -18 22 -33 29 -33 21 0 20 232 -1 264 -20 30 0 62 33 52
23 -8 31 -49 12 -61 -6 -4 -10 -61 -10 -139 0 -128 1 -133 25 -156 50 -47 41
-123 -20 -165 -26 -17 -30 -26 -28 -60 3 -66 -7 -104 -35 -130 -22 -21 -37
-25 -87 -25 -48 0 -64 -4 -78 -20 -16 -19 -15 -21 22 -44 46 -29 95 -87 118
-138 11 -24 22 -36 35 -35 10 1 18 4 18 7 0 3 12 13 28 22 38 22 112 94 154
148 96 124 138 261 133 434 -7 248 -132 442 -370 576 -99 56 -290 81 -423 56z"/>
<path d="M946 1255 c-19 -20 -20 -44 -2 -67 34 -45 109 11 78 59 -13 21 -58
26 -76 8z"/>
<path d="M1286 1255 c-35 -35 -5 -92 43 -80 28 7 41 21 41 45 0 40 -56 63 -84
35z"/>
<path d="M1045 1063 c9 -20 17 -37 18 -38 1 0 12 -8 23 -18 25 -21 69 -31 101
-22 28 7 69 51 82 87 l10 28 -125 0 -124 0 15 -37z"/>
<path d="M1135 758 c-2 -7 -5 -26 -7 -43 -3 -27 -7 -31 -43 -35 -35 -4 -40 -8
-40 -30 0 -17 6 -26 20 -28 63 -9 65 -11 65 -52 0 -33 3 -40 20 -40 11 0 23
-1 28 -2 4 -2 9 17 12 42 5 45 5 45 45 46 37 0 40 2 40 30 0 26 -4 29 -40 34
-39 5 -40 6 -43 48 -3 37 -6 42 -28 42 -13 0 -27 -6 -29 -12z"/>
</g>
</svg>
